<svg width="103" height="102" viewBox="0 0 103 102" fill="none" xmlns="http://www.w3.org/2000/svg">
<path d="M101 50C101 77.6142 78.6142 100 51 100C23.3858 100 1 77.6142 1 50C1 22.3858 23.3858 0 51 0C78.6142 0 101 22.3858 101 50Z" fill="white"/>
<g clip-path="url(#clip0_3_16)">
<path d="M70.9667 84.2515H70.9704C70.9667 84.2444 70.9631 84.2362 70.9631 84.2292C70.8945 83.9511 70.7933 83.6788 70.6534 83.4135C68.4205 77.4028 66.6182 68.8468 65.5164 58.8096C64.8075 51.8474 64.6869 43.8547 64.5808 35.3544C64.4601 25.9861 64.77 17.2389 65.4148 9.78785C64.905 9.4977 64.3922 9.3531 63.8644 9.3531C58.4778 9.3868 54.3221 25.2074 54.5708 44.6976C54.6005 47.1402 54.7035 49.528 54.8612 51.8325C57.5386 52.6031 59.3677 54.1491 59.3948 55.9422L59.4131 57.8109C59.4247 57.8189 59.436 57.819 59.4397 57.819C58.6249 68.3118 57.0075 77.2735 54.8575 83.5192C54.7215 83.779 54.6274 84.0569 54.5669 84.3362C54.5669 84.342 54.5636 84.3515 54.5636 84.3515H54.5669C54.5249 84.5648 54.4919 84.7775 54.4954 84.9924C54.5249 87.6988 58.2674 89.8731 62.838 89.8418C67.4094 89.8117 71.0867 87.5953 71.0534 84.8932C71.0537 84.6722 71.0152 84.4564 70.9667 84.2515Z" fill="#1C8A96"/>
<path d="M48.1517 27.7782L47.1557 14.1802V10.199C47.1557 9.45167 46.5376 8.84163 45.7681 8.84163C45.0057 8.84163 44.3837 9.45167 44.3837 10.199V27.4311C44.1535 27.8096 43.769 28.0757 43.2975 28.0831C42.5539 28.1062 41.9436 27.5117 41.9286 26.7605L41.7138 17.5743V10.1992C41.7138 9.45198 41.0911 8.84179 40.3289 8.84179C39.5676 8.84179 38.9484 9.45198 38.9484 10.1992V27.5795C38.7112 27.9417 38.3298 28.2059 37.8698 28.2127C37.1307 28.2278 36.5118 27.6411 36.497 26.8853L36.0785 16.9557V10.1989C36.0785 9.45167 35.4559 8.84148 34.6943 8.84148C33.9289 8.84148 33.3063 9.45167 33.3063 10.1989V12.3104L31.4356 27.7816C31.367 30.6773 33.6875 33.1168 37.3038 33.8257C36.5428 53.7694 33.9438 71.1835 30.4774 81.8718C30.3303 82.1917 30.2283 82.5129 30.1532 82.8475C30.1532 82.8525 30.1455 82.8606 30.1455 82.8706C30.0923 83.1153 30.059 83.3748 30.0551 83.6331C29.9797 86.8435 33.6233 89.4513 38.194 89.4482C42.7653 89.4482 46.5375 86.8369 46.6127 83.6179C46.6127 83.3632 46.5899 83.1071 46.5486 82.8603C46.5486 82.8522 46.5451 82.847 46.5451 82.8321C46.4887 82.5043 46.3945 82.1762 46.2655 81.8635C43.3049 71.1786 41.528 53.7691 41.7022 33.8184C45.3534 33.1095 48.0873 30.6771 48.1517 27.7782Z" fill="#1C8A96"/>
</g>
<defs>
<clipPath id="clip0_3_16">
<rect width="41" height="81" fill="white" transform="translate(30 9)"/>
</clipPath>
</defs>
</svg>
