<svg width="103" height="102" viewBox="0 0 103 102" fill="none" xmlns="http://www.w3.org/2000/svg">
<path d="M101 50C101 77.6142 78.6142 100 51 100C23.3858 100 1 77.6142 1 50C1 22.3858 23.3858 0 51 0C78.6142 0 101 22.3858 101 50Z" fill="#E63946"/>
<g clip-path="url(#clip0_3_16)">
<path d="M70.9127 84.41H70.9165C70.9127 84.4029 70.9091 84.3947 70.9091 84.3877C70.8406 84.1096 70.7394 83.8374 70.5995 83.5721C68.3666 77.5613 66.5643 69.0053 65.4625 58.9681C64.7536 52.0059 64.633 44.0132 64.5269 35.5129C64.4062 26.1446 64.716 17.3974 65.3609 9.94637C64.8511 9.65622 64.3383 9.51163 63.8105 9.51163C58.4239 9.54532 54.2682 25.366 54.5169 44.8561C54.5466 47.2988 54.6496 49.6865 54.8073 51.9911C57.4847 52.7617 59.3138 54.3076 59.3409 56.1007L59.3592 57.9694C59.3708 57.9775 59.382 57.9775 59.3858 57.9775C58.571 68.4703 56.9536 77.432 54.8035 83.6777C54.6676 83.9375 54.5735 84.2155 54.513 84.4947C54.513 84.5005 54.5097 84.51 54.5097 84.51H54.513C54.471 84.7233 54.438 84.9361 54.4414 85.1509C54.471 87.8573 58.2134 90.0316 62.7841 90.0003C67.3554 89.9703 71.0328 87.7538 70.9994 85.0517C70.9997 84.8307 70.9612 84.6149 70.9127 84.41Z" fill="white"/>
<path d="M48.0978 27.9368L47.1018 14.3387V10.3575C47.1018 9.61019 46.4837 9.00016 45.7141 9.00016C44.9518 9.00016 44.3297 9.61019 44.3297 10.3575V27.5897C44.0996 27.9681 43.7151 28.2342 43.2436 28.2416C42.5 28.2647 41.8897 27.6702 41.8747 26.919L41.6598 17.7328V10.3577C41.6598 9.61051 41.0372 9.00032 40.275 9.00032C39.5137 9.00032 38.8945 9.61051 38.8945 10.3577V27.7381C38.6573 28.1002 38.2759 28.3644 37.8159 28.3712C37.0768 28.3864 36.4579 27.7996 36.443 27.0439L36.0246 17.1142V10.3574C36.0246 9.61019 35.402 9 34.6404 9C33.875 9 33.2524 9.61019 33.2524 10.3574V12.4689L31.3816 27.9401C31.3131 30.8358 33.6336 33.2753 37.2499 33.9842C36.4889 53.9279 33.8899 71.342 30.4235 82.0304C30.2764 82.3503 30.1744 82.6714 30.0993 83.006C30.0993 83.0111 30.0916 83.0191 30.0916 83.0291C30.0384 83.2738 30.0051 83.5333 30.0012 83.7916C29.9257 87.0021 33.5694 89.6099 38.1401 89.6067C42.7114 89.6067 46.4836 86.9954 46.5588 83.7765C46.5588 83.5217 46.536 83.2656 46.4947 83.0188C46.4947 83.0107 46.4912 83.0055 46.4912 82.9907C46.4347 82.6629 46.3405 82.3347 46.2116 82.022C43.2509 71.3371 41.4741 53.9276 41.6483 33.977C45.2995 33.268 48.0334 30.8357 48.0978 27.9368Z" fill="white"/>
</g>
<defs>
<clipPath id="clip0_3_16">
<rect width="41" height="81" fill="white" transform="translate(30 9)"/>
</clipPath>
</defs>
</svg>
